<?xml version="1.0" encoding="utf-8"?>
<!-- Generator: Adobe Illustrator 19.1.0, SVG Export Plug-In . SVG Version: 6.00 Build 0)  -->
<svg version="1.1" id="Layer_1" xmlns="http://www.w3.org/2000/svg" xmlns:xlink="http://www.w3.org/1999/xlink" x="0px" y="0px"
	 viewBox="0 0 128 128" style="enable-background:new 0 0 128 128;" xml:space="preserve">
<style type="text/css">
	.st0{fill:#88C5CC;}
	.st1{fill:#E6E6E5;}
	.st2{fill:#CDCCCC;}
	.st3{fill:#9A612E;}
	.st4{fill:#C3E2F1;}
	.st5{opacity:0.3;}
	.st6{fill:#FFFFFF;}
	.st7{fill:#8D592B;}
	.st8{opacity:0.2;}
</style>
<g>
	<circle class="st0" cx="64" cy="64.5" r="64"/>
	<path class="st1" d="M64,106.5c-1.1,0-2-0.9-2-2v-16c0-1.1,0.9-2,2-2c1.1,0,2,0.9,2,2v16C66,105.6,65.1,106.5,64,106.5z"/>
	<path class="st2" d="M64,86.5c-0.4,0-0.7,0.1-1,0.3c0.6,0.3,1,1,1,1.7v16c0,0.7-0.4,1.4-1,1.7c0.3,0.2,0.6,0.3,1,0.3
		c1.1,0,2-0.9,2-2v-16C66,87.4,65.1,86.5,64,86.5z"/>
	<path class="st1" d="M82,106.5H46c-1.1,0-2-0.9-2-2c0-1.1,0.9-2,2-2h36c1.1,0,2,0.9,2,2C84,105.6,83.1,106.5,82,106.5z"/>
	<path class="st2" d="M82,102.5h-2c1.1,0,2,0.9,2,2c0,1.1-0.9,2-2,2h2c1.1,0,2-0.9,2-2C84,103.4,83.1,102.5,82,102.5z"/>
	<path class="st1" d="M64,90.5c-22.9,0-43-20.1-43-42.5c0-1.1,0.9-2.5,2-2.5h10c1.1,0,2,0.9,2,2c0,1.1-0.9,2-2,2h-7.9
		c1.2,18,17.4,36,38.9,36s37.8-18,38.9-36H96c-1.1,0-2-0.9-2-2c0-1.1,0.9-2,2-2h9c1.1,0,2,1.4,2,2.5C107,70.4,86.9,90.5,64,90.5z"/>
	<g>
		<path class="st2" d="M33,47.5c0,1.1-0.9,2-2,2h2c1.1,0,2-0.9,2-2c0-1.1-0.9-2-2-2h-2C32.1,45.5,33,46.4,33,47.5z"/>
		<path class="st2" d="M23.1,49.5C24.2,67.5,40.5,86,62,86c0.3,0,0.7-0.3,1-0.3c-21-0.6-36.8-18.2-37.9-36.2H23.1z"/>
		<path class="st2" d="M105,45.5h-2c1.1,0,2,1.4,2,2.5c0,22-19.5,41.7-42,42.2c0.3,0,0.7,0.1,1,0.1c22.9,0,43-20.1,43-42.4
			C107,46.8,106.1,45.5,105,45.5z"/>
	</g>
	<path class="st3" d="M64,84.5c-19.3,0-35-15.7-35-35c0-19.3,15.7-35,35-35c19.3,0,35,15.7,35,35C99,68.8,83.3,84.5,64,84.5z"/>
	<path class="st3" d="M64,14.5c-0.3,0-0.7,0-1,0c18.8,0.5,34,16,34,35c0,19-15.2,34.4-34,35c0.3,0,0.7,0,1,0c19.3,0,35-15.7,35-35
		C99,30.2,83.3,14.5,64,14.5z"/>
	<path class="st4" d="M95,49.5c0,17.1-13.9,31-31,31c-17.1,0-31-13.9-31-31c0-17.1,13.9-31,31-31C81.1,18.5,95,32.4,95,49.5z"/>
	<g class="st5">
		<path class="st6" d="M47,39.5c-0.3,0-0.5-0.1-0.7-0.3c-0.4-0.4-0.4-1,0-1.4l10-10c0.4-0.4,1-0.4,1.4,0c0.4,0.4,0.4,1,0,1.4l-10,10
			C47.5,39.4,47.3,39.5,47,39.5z"/>
		<path class="st6" d="M43,50.5c-0.3,0-0.5-0.1-0.7-0.3c-0.4-0.4-0.4-1,0-1.4l25-25c0.4-0.4,1-0.4,1.4,0c0.4,0.4,0.4,1,0,1.4l-25,25
			C43.5,50.4,43.3,50.5,43,50.5z"/>
	</g>
	<path class="st7" d="M17,106.5v1.4C29,120.6,45.4,128,64,128c18.8,0,35.7-8.5,47.4-21.5H17z"/>
	<g class="st8">
		<path class="st6" d="M77.5,53.1L89.9,57c0.7-2.4,1.1-4.9,1.1-7.5c0-1.4-0.1-2.7-0.3-4.1l-12.9,1.5c0.2,0.8,0.2,1.7,0.2,2.6
			C78,50.7,77.8,52,77.5,53.1z"/>
		<path class="st6" d="M76.4,56c-1.3,2.5-3.4,4.6-6,5.9L75,74.1c5.7-2.5,10.3-7,13.1-12.5L76.4,56z"/>
		<path class="st6" d="M64,62.5C64,62.5,64,62.5,64,62.5c-2.9,0-5.6-0.4-7.9-2l-5.5,12.1c3.9,2.3,8.4,3.8,13.4,3.8V62.5z"/>
	</g>
</g>
</svg>
